<?xml version="1.0" encoding="UTF-8" standalone="no"?>
<svg width="41px" height="41px" viewBox="0 0 41 41" version="1.1" xmlns="http://www.w3.org/2000/svg" xmlns:xlink="http://www.w3.org/1999/xlink" xmlns:sketch="http://www.bohemiancoding.com/sketch/ns">
    <!-- Generator: sketchtool 3.4 (381) - http://www.bohemiancoding.com/sketch -->
    <title>ic_social_twitter</title>
    <desc>Created with sketchtool.</desc>
    <defs></defs>
    <g id="Page-1" stroke="none" stroke-width="1" fill="none" fill-rule="evenodd" sketch:type="MSPage">
        <g id="Michelada-Desktop" sketch:type="MSArtboardGroup" transform="translate(-1155.000000, -4082.000000)" fill="#FFFFFF">
            <g id="Footer" sketch:type="MSLayerGroup" transform="translate(0.000000, 3920.000000)">
                <g id="ic_social_twitter" transform="translate(1155.000000, 162.000000)" sketch:type="MSShapeGroup">
                    <path d="M40.7998,20.2002 C40.7998,31.2452 31.8448,40.2002 20.7998,40.2002 C9.7538,40.2002 0.7998,31.2452 0.7998,20.2002 C0.7998,9.1552 9.7538,0.2002 20.7998,0.2002 C31.8448,0.2002 40.7998,9.1552 40.7998,20.2002 Z M30.5720333,17.0509 C30.5720333,23.3905667 25.7447667,30.7005 16.9224333,30.7005 C14.2143,30.7005 11.6923667,29.9063 9.5707,28.5446333 C9.9469,28.5902333 10.3294333,28.6117667 10.7157667,28.6117667 C12.9615667,28.6117667 15.0300333,27.8454333 16.6703667,26.5585 C14.5727667,26.5230333 12.8007,25.1322333 12.1889,23.2259 C12.4827667,23.2829 12.7842333,23.3145667 13.0945667,23.3145667 C13.5315667,23.3145667 13.9571667,23.2588333 14.3561667,23.1461 C12.1635667,22.7053 10.5105667,20.7647667 10.5105667,18.4391667 L10.5105667,18.3809 C11.1578333,18.7406333 11.8963,18.9559667 12.6841667,18.9800333 C11.3947,18.1212333 10.5473,16.6506333 10.5473,14.9875 C10.5473,14.1097 10.7854333,13.2863667 11.1983667,12.5770333 C13.5619667,15.4789667 17.0997667,17.3891 21.0847,17.5867 C21.0023667,17.2358333 20.9605667,16.8723 20.9605667,16.4948333 C20.9605667,13.8462333 23.1075667,11.7005 25.7574333,11.7005 C27.1381,11.7005 28.3832333,12.2819 29.2585,13.2141667 C30.3491,12.9975667 31.3763667,12.5998333 32.3048333,12.0513667 C31.9451,13.1685667 31.1863667,14.1122333 30.1958333,14.7025 C31.1635667,14.5885 32.0920333,14.3301 32.9508333,13.9488333 C32.3061,14.9115 31.4941667,15.7563667 30.5568333,16.4327667 C30.5669667,16.6392333 30.5720333,16.8431667 30.5720333,17.0509 Z" id="Stroke-1"></path>
                </g>
            </g>
        </g>
    </g>
</svg>