<svg xmlns="http://www.w3.org/2000/svg" width="206" height="64" viewBox="0 0 206 64">
    <g fill="none" fill-rule="evenodd">
        <path fill="#FFF" d="M79.237 35.178v-6.146c0-1.521.656-2.303 1.888-2.303 1.21 0 1.539.718 1.539 2.303v6.146h3.18v-6.146c0-1.521.656-2.303 1.887-2.303 1.21 0 1.539.718 1.539 2.303v6.146h3.16v-7.477c0-2.641-1.395-4.077-3.878-4.077-1.375 0-2.257.57-3.406 1.816-.718-1.225-1.723-1.816-3.057-1.816-1.334 0-2.319.57-2.995 1.732v-1.521h-2.935v11.343h3.078zM94.667 22.8h3.22v-2.64h-3.22v2.64zm0 12.38h3.22V23.834h-3.22v11.343zm12.863-4.057c-.533.74-1.25 1.12-2.133 1.12-1.559 0-2.626-1.077-2.626-2.81 0-1.562 1.067-2.703 2.524-2.703 1.066 0 1.825.422 2.276 1.204h3.427c-.882-2.873-2.913-4.436-5.684-4.436-1.579 0-2.933.592-4.062 1.775-1.087 1.14-1.682 2.577-1.682 4.16 0 1.585.554 3.063 1.62 4.225 1.129 1.225 2.483 1.817 4.166 1.817 2.687 0 4.821-1.626 5.642-4.352h-3.468zm8.248 4.056v-6.146c0-1.521.678-2.303 1.95-2.303 1.251 0 1.58.718 1.58 2.303v6.146h3.242v-7.477c0-2.6-1.477-4.077-3.756-4.077-1.394 0-2.42.528-3.097 1.626v-5.09h-3.099v15.018h3.18zm11.49-6.865c.226-1.077 1.19-1.796 2.545-1.796 1.293 0 2.216.634 2.606 1.796h-5.15zm4.33 3.57c-.492.444-1.026.634-1.683.634-1.415 0-2.256-.633-2.544-1.838h8.31v-.359c0-4.225-2.401-6.823-5.91-6.823-1.497 0-2.953.633-4.062 1.775a5.901 5.901 0 0 0-1.682 4.16c0 1.606.554 3.043 1.621 4.205 1.128 1.225 2.482 1.816 4.165 1.816 2.461 0 4.288-1.204 5.355-3.57h-3.57zm5.724 3.295h3.221V20.16h-3.22v15.02zm13.541 0h3.14V23.835h-3.241v1.267c-.74-.972-1.766-1.436-3.1-1.436-1.394 0-2.646.528-3.672 1.563-1.149 1.14-1.764 2.598-1.764 4.225 0 1.774.656 3.295 1.929 4.457.964.887 2.113 1.331 3.447 1.331 1.313 0 2.298-.36 3.261-1.331v1.267zm-5.395-5.745c0-1.521 1.19-2.81 2.728-2.81 1.519 0 2.689 1.226 2.689 2.852 0 1.563-1.17 2.746-2.565 2.746-1.662 0-2.852-1.204-2.852-2.788zm13.295 0c0-1.521 1.19-2.81 2.73-2.81 1.517 0 2.687 1.226 2.687 2.852 0 1.563-1.17 2.746-2.565 2.746-1.663 0-2.852-1.204-2.852-2.788zm5.396 5.745h3.14V20.16h-3.243v4.943c-.738-.972-1.764-1.436-3.097-1.436-1.396 0-2.648.528-3.673 1.563-1.15 1.14-1.765 2.598-1.765 4.225 0 1.774.656 3.295 1.929 4.457.964.887 2.113 1.331 3.447 1.331 1.312 0 2.297-.36 3.262-1.331v1.267zm13.296 0h3.139V23.835h-3.242v1.267c-.739-.972-1.764-1.436-3.098-1.436-1.395 0-2.647.528-3.673 1.563-1.149 1.14-1.764 2.598-1.764 4.225 0 1.774.656 3.295 1.928 4.457.965.887 2.114 1.331 3.447 1.331 1.313 0 2.298-.36 3.263-1.331v1.267zm-5.397-5.745c0-1.521 1.19-2.81 2.73-2.81 1.518 0 2.687 1.226 2.687 2.852 0 1.563-1.17 2.746-2.565 2.746-1.661 0-2.852-1.204-2.852-2.788zm11.02 5.745h3.323v-3.464h-3.324v3.464zm5.927-12.379h3.222v-2.64h-3.222v2.64zm0 12.38h3.222V23.834h-3.222v11.343zm8.105-5.662c0-1.563 1.17-2.809 2.607-2.809 1.435 0 2.605 1.246 2.605 2.81 0 1.541-1.17 2.787-2.605 2.787-1.417 0-2.607-1.246-2.607-2.788zm-3.2-.042c0 1.584.554 3.042 1.62 4.182 1.13 1.225 2.483 1.817 4.165 1.817 1.663 0 3.057-.612 4.187-1.774 1.107-1.141 1.66-2.556 1.66-4.267a5.983 5.983 0 0 0-1.805-4.246c-1.107-1.077-2.482-1.648-4.082-1.648-1.498 0-2.954.634-4.063 1.775a5.903 5.903 0 0 0-1.682 4.161z"/>
        <path fill="#EA3434" d="M63.8 32.047c0 17.491-14.2 31.67-31.715 31.67S.371 49.537.371 32.046 14.57.377 32.085.377C49.601.377 63.8 14.556 63.8 32.047"/>
        <path fill="#F9D026" d="M58.774 22.064c0 3.763-3.055 6.814-6.822 6.814-3.769 0-6.823-3.05-6.823-6.814 0-3.762 3.054-6.813 6.823-6.813 3.767 0 6.822 3.05 6.822 6.813"/>
        <path fill="#F9D026" d="M47.949 59.466c-1.515-2.84-1.163-6.486 1.17-8.869l5.197-5.308c2.845-2.906 2.845-7.619 0-10.525a7.179 7.179 0 0 0-10.304 0l-8.645 8.83c-1.13 1.155-5.844 6.222-10.937 1.695-2.846-2.906-2.74-7.76.105-10.666l12.345-12.61c2.845-2.907 2.845-7.62 0-10.526a7.178 7.178 0 0 0-10.304 0l-14.17 14.475-1.535 1.568a7.174 7.174 0 0 1-9.136-.97 7.89 7.89 0 0 1-.724-.868 31.767 31.767 0 0 0-.64 6.355c0 17.491 14.199 31.67 31.714 31.67a31.59 31.59 0 0 0 15.864-4.251"/>
    </g>
</svg>
