<svg xmlns="http://www.w3.org/2000/svg" width="64" height="64" viewBox="0 0 64 64">
    <g fill="none" fill-rule="evenodd">
        <path fill="#EA3434" d="M63.8 32.047c0 17.491-14.2 31.67-31.715 31.67S.371 49.537.371 32.046 14.57.377 32.085.377C49.601.377 63.8 14.556 63.8 32.047"/>
        <path fill="#F9D026" d="M58.774 22.064c0 3.763-3.055 6.814-6.822 6.814-3.769 0-6.823-3.05-6.823-6.814 0-3.762 3.054-6.813 6.823-6.813 3.767 0 6.822 3.05 6.822 6.813"/>
        <path fill="#F9D026" d="M47.949 59.466c-1.515-2.84-1.163-6.486 1.17-8.869l5.197-5.308c2.845-2.906 2.845-7.619 0-10.525a7.179 7.179 0 0 0-10.304 0l-8.645 8.83c-1.13 1.155-5.844 6.222-10.937 1.695-2.846-2.906-2.74-7.76.105-10.666l12.345-12.61c2.845-2.907 2.845-7.62 0-10.526a7.178 7.178 0 0 0-10.304 0l-14.17 14.475-1.535 1.568a7.174 7.174 0 0 1-9.136-.97 7.89 7.89 0 0 1-.724-.868 31.767 31.767 0 0 0-.64 6.355c0 17.491 14.199 31.67 31.714 31.67a31.59 31.59 0 0 0 15.864-4.251"/>
    </g>
</svg>
