<svg xmlns="http://www.w3.org/2000/svg" width="162" height="128" viewBox="0 0 162 128">
    <g fill="#292C52" fill-rule="evenodd">
        <path d="M162.5 127.185s-118.38 0-132.759.252c-.98.031-20.825-14.496-9.67-29.97 1.801-2.49 12.103-8.886 21.458-1.575 2.401 1.89 28.315 27.7 28.315 27.7s9.259 7.311 20.067-2.678c8.754-10.242 2.812-17.743-1.865-22.407-4.677-4.664-33.687-34.097-36.942-36.87-4.108-3.467-7.743-12.89-.948-20.579 8.28-9.36 19.467-4.065 21.457-2.458 5.373 4.317 20.668 21.46 27.873 27.039 2.15 1.701 12.83 3.34 19.088-3.183 6.257-6.523 4.297-16.387 2.149-18.341-3.571-3.372-15.612-15.568-17.508-17.9-13.841-14.874 6.956-33.984 21.49-21.303.066.058 37.637 35.325 37.637 35.325l.158 86.948zM16.031 71.5c-8.556.032-15.5-7.348-15.53-16.484C.468 45.879 7.412 38.5 15.968 38.5c8.556 0 15.5 7.348 15.53 16.452.032 9.105-6.912 16.516-15.468 16.548z"/>
    </g>
</svg>
