<?xml version="1.0" encoding="UTF-8" standalone="no"?>
<svg width="41px" height="40px" viewBox="0 0 41 40" version="1.1" xmlns="http://www.w3.org/2000/svg" xmlns:xlink="http://www.w3.org/1999/xlink" xmlns:sketch="http://www.bohemiancoding.com/sketch/ns">
    <!-- Generator: sketchtool 3.4 (381) - http://www.bohemiancoding.com/sketch -->
    <title>ic_social_github</title>
    <desc>Created with sketchtool.</desc>
    <defs></defs>
    <g id="Page-1" stroke="none" stroke-width="1" fill="none" fill-rule="evenodd" sketch:type="MSPage">
        <g id="Michelada-Desktop" sketch:type="MSArtboardGroup" transform="translate(-1214.000000, -4082.000000)" fill="#FFFFFF">
            <g id="Footer" sketch:type="MSLayerGroup" transform="translate(0.000000, 3920.000000)">
                <path d="M1214,182.501258 C1214,191.556998 1219.87314,199.239779 1228.02029,201.951719 C1229.04592,202.139227 1229.41967,201.506231 1229.41967,200.962584 C1229.41967,200.476826 1229.40206,199.186924 1229.39199,197.476703 C1223.68999,198.715009 1222.48692,194.728269 1222.48692,194.728269 C1221.55442,192.359883 1220.21041,191.730663 1220.21041,191.730663 C1218.34917,190.458379 1220.35135,190.483548 1220.35135,190.483548 C1222.4089,190.629527 1223.49116,192.59647 1223.49116,192.59647 C1225.31967,195.728729 1228.28834,194.82391 1229.45743,194.300399 C1229.64368,192.975261 1230.17222,192.0717 1230.75866,191.559515 C1226.20688,191.042296 1221.42103,189.282996 1221.42103,181.427808 C1221.42103,179.190301 1222.22014,177.360528 1223.53143,175.927164 C1223.32001,175.408686 1222.61654,173.324708 1223.73152,170.502026 C1223.73152,170.502026 1225.45307,169.950829 1229.36934,172.603622 C1231.00405,172.148066 1232.75832,171.921547 1234.50126,171.912738 C1236.24168,171.921547 1237.99595,172.148066 1239.63318,172.603622 C1243.54693,169.950829 1245.2647,170.502026 1245.2647,170.502026 C1246.38346,173.324708 1245.67999,175.408686 1245.46857,175.927164 C1246.78238,177.360528 1247.57646,179.190301 1247.57646,181.427808 C1247.57646,189.303131 1242.78306,191.036004 1238.21618,191.543155 C1238.95236,192.176151 1239.60801,193.427041 1239.60801,195.339871 C1239.60801,198.079497 1239.58284,200.290577 1239.58284,200.962584 C1239.58284,201.511265 1239.95157,202.149294 1240.9923,201.949202 C1249.13063,199.232228 1255,191.554481 1255,182.501258 C1255,171.177808 1245.82093,162 1234.49874,162 C1223.17907,162 1214,171.177808 1214,182.501258 Z" id="ic_social_github" sketch:type="MSShapeGroup"></path>
            </g>
        </g>
    </g>
</svg>